<?xml version="1.0" encoding="UTF-8"?><svg id="Layer_1" xmlns="http://www.w3.org/2000/svg" viewBox="0 0 101.05 80.49"><defs><style>.cls-1{fill:#002e05;}</style></defs><path class="cls-1" d="M97.89,48.55c1.32-2.01,2.1-4.41,2.1-7,0-5.34-3.27-9.91-7.91-11.84,2.29-2.32,3.71-5.5,3.71-9.01,0-7.08-5.74-12.82-12.82-12.82-3.51,0-6.68,1.41-8.99,3.7-1.33-5.66-6.38-9.88-12.45-9.88-4.53,0-8.49,2.37-10.77,5.92-2.25-3.68-6.27-6.15-10.9-6.15-7.08,0-12.82,5.74-12.82,12.82,0,.14.04.27.04.41-.81-.11-1.63-.18-2.48-.18-10.5,0-19.01,8.51-19.01,19.01,0,3.75,1.1,7.24,2.98,10.18C3.46,46.59,0,52.05,0,58.34c0,9.27,7.51,16.78,16.78,16.78,6.33,0,11.83-3.5,14.69-8.67,5.47,5.36,12.94,8.67,21.2,8.67,5.38,0,10.42-1.42,14.8-3.88,3.49,4.16,8.71,6.8,14.56,6.8,10.5,0,19.01-8.51,19.01-19.01,0-3.88-1.17-7.48-3.16-10.48Z"/></svg>