<?xml version="1.0" encoding="UTF-8"?><svg id="Layer_1" xmlns="http://www.w3.org/2000/svg" viewBox="0 0 155.67 80.09"><defs><style>.cls-1{fill:#002e05;}</style></defs><path class="cls-1" d="M43.06,38.84c-13.43-9.81-33.4-9.44-46.45.87C.66,29.05,10.35,20.73,21.49,18.33c11.14-2.4,23.4,1.2,31.48,9.24-1.22-6.65-2.43-13.31-3.65-19.96,7.4,5.67,14.8,11.33,22.2,17C82.59,2.64,113.19-6.73,134.66,5.26c-18.64-1.75-37.65,10.85-43.3,28.7,22.16-10.07,51.55,1.48,60.92,23.94-8.42-8.3-21.06-12.06-32.64-9.72-4.6,2.3-9.41,2.93-13.79,6.06s-6.98,9.67-11.05,12.56c-7.82,5.56-18.78-.83-27.42-5.27-17.79-9.14-38.75-3.41-43.44,18.56-7.62-15.44,2.91-36.61,19.12-41.25Z"/></svg>