<?xml version="1.0" encoding="UTF-8"?><svg id="moon-cycle" xmlns="http://www.w3.org/2000/svg" viewBox="0 0 648.23 153.1"><g id="fc1oJo.tif"><path d="M382.93,61.49c.27,33.81-28.2,61.18-61.2,60.54-35.1-.68-60.72-27.31-60.56-61.48C261.31,26.86,287.64.25,322.6,0c32.13-.23,61.44,27.75,60.33,61.49Z"/><path d="M496.54,12.56c-23.44,12.64-37.37,31.25-37.12,58,.25,26.33,13.93,44.95,37.67,56.9-25.8,8.52-56.4-1.55-70.6-26.18-16.26-28.19-8.29-62.74,16.98-81.13,16.79-12.21,44.73-13.45,53.07-7.6Z"/><path d="M146.89,127.39c26-11.49,39.07-31.77,39.01-57.44-.06-25.47-12.85-45.77-37.37-56.76,2.86-5.49,28.8-5.27,40.87.33,31.9,14.8,44.96,48.08,33.51,77.98-12.31,32.12-44.88,44.99-76.02,35.89Z"/><path d="M595.76,32.14c-28.63,11.18-45.21,30.35-45.11,60.62.1,30.1,16.9,49.01,45.39,59.64-14.47,3.17-39.55-4.8-52.17-19.61-19.24-22.57-19.31-47.75-8.84-68.12,13.01-25.32,38.39-35.18,60.74-32.53Z"/><path d="M48.66,152.31c28.86-10.53,45.63-30.07,45.59-59.73-.03-29.76-16.34-49.69-44.54-59.96,14.32-3.91,38.58,4.09,52.6,20.98,18.24,21.99,17.4,54.42,2.27,74.72-14.39,19.31-40.03,27.14-55.92,24Z"/><path d="M0,92.47c14.67-2.37,22.48-10.83,24.99-25.26,2.3,14.59,10.34,22.71,24.86,25.11-14.29,2.84-22.49,10.75-24.81,25.33-2.63-14.22-10.23-22.87-25.04-25.18Z"/><path d="M598.8,91.73c13.9-1.83,22.44-9.56,24.56-24.35,2.64,14.14,10.36,22.58,24.87,24.95-14.24,2.94-22.45,10.89-23.91,25.49-3.06-6.12-4.78-12.67-8.89-16.9-4.07-4.18-10.56-6-16.63-9.2Z"/></g></svg>